<?xml version="1.0" encoding="iso-8859-1"?>
<!-- Generator: Adobe Illustrator 16.0.0, SVG Export Plug-In . SVG Version: 6.00 Build 0)  -->
<!DOCTYPE svg PUBLIC "-//W3C//DTD SVG 1.1//EN" "http://www.w3.org/Graphics/SVG/1.1/DTD/svg11.dtd">
<svg xmlns="http://www.w3.org/2000/svg" xmlns:xlink="http://www.w3.org/1999/xlink" version="1.1" id="Capa_1" x="0px" y="0px" width="512px" height="512px" viewBox="0 0 199.848 199.849" style="enable-background:new 0 0 199.848 199.849;" xml:space="preserve">
<g>
	<path d="M177.96,63.346c-15.438-15.444-39.354-16.668-53.368-2.645L75.61,110.674l-16.355,16.112   c-5.071,5.06-14.869,3.807-21.406-2.701c-6.549-6.561-7.796-16.361-2.731-21.433l75.637-75.634l12.437,12.424V0H83.734   l11.088,11.074L19.171,86.708c-13.946,13.947-12.735,37.861,2.722,53.312c15.448,15.439,39.354,16.656,53.238,2.778l16.44-16.196   l49.033-50.037c5.071-5.06,14.871-3.827,21.42,2.71c6.55,6.543,7.791,16.355,2.72,21.421l-71.382,71.385l-11.688-11.68v23.365   l-0.035,0.035l0.035,0.053v15.994h39.448l-11.821-11.814l71.391-71.391C194.624,102.706,193.406,78.785,177.96,63.346z" fill="#cc005f"/>
</g>
<g>
</g>
<g>
</g>
<g>
</g>
<g>
</g>
<g>
</g>
<g>
</g>
<g>
</g>
<g>
</g>
<g>
</g>
<g>
</g>
<g>
</g>
<g>
</g>
<g>
</g>
<g>
</g>
<g>
</g>
</svg>
